<?xml version="1.0" encoding="UTF-8"?>
<svg width="26px" height="22px" viewBox="0 0 26 22" version="1.1" xmlns="http://www.w3.org/2000/svg" xmlns:xlink="http://www.w3.org/1999/xlink">
    <!-- Generator: Sketch 42 (36781) - http://www.bohemiancoding.com/sketch -->
    <title>sina weibo L</title>
    <desc>Created with Sketch.</desc>
    <defs></defs>
    <g id="扶뒬못" stroke="none" stroke-width="1" fill="none" fill-rule="evenodd">
        <g id="扶뒬못-copy" transform="translate(-24.000000, -481.000000)" fill="#FFFFFF">
            <g id="Share-unfold" transform="translate(23.000000, 436.000000)">
                <g id="Group-9">
                    <g id="Group-3">
                        <path d="M12.6142208,66.5619789 C6.19986345,66.5619789 1,63.2072283 1,59.0689333 C1,54.9306382 8.78765002,48.3965726 11.7665047,48.3965726 C13.0160696,48.3965726 15.4675058,49.3279739 13.752408,52.2781102 C13.6324865,52.4843869 17.6202415,50.563012 19.8003847,51.8267685 C21.9805279,53.090525 19.8003847,55.1215613 19.8003847,55.3472325 C19.8003847,55.5729037 24.1783972,55.5729037 24.1783972,59.0689333 C24.178397,63.2072283 19.0285781,66.5619789 12.6142208,66.5619789 Z M12.9174083,64.2666661 C17.0154297,63.6907267 20.034053,61.0644691 19.6596924,58.4007551 C19.2853318,55.7370412 15.6597502,54.0445657 11.5617287,54.620505 C7.46370729,55.1964444 4.44508406,57.822702 4.81944464,60.486416 C5.19380522,63.1501299 8.81938681,64.8426054 12.9174083,64.2666661 Z M12.16,63.5410606 C9.72264229,64.014835 7.42671536,62.7523478 7.03190339,60.7212163 C6.63709143,58.6900848 8.29290177,56.6594577 10.7302595,56.1856833 C13.1676173,55.711909 15.4635442,56.9743962 15.8583562,59.0055277 C16.2531681,61.0366591 14.5973578,63.0672863 12.16,63.5410606 Z M12.2395685,59.8182378 C12.653398,59.8182378 12.9888731,59.4827628 12.9888731,59.0689333 C12.9888731,58.6551038 12.653398,58.3196287 12.2395685,58.3196287 C11.825739,58.3196287 11.4902639,58.6551038 11.4902639,59.0689333 C11.4902639,59.4827628 11.825739,59.8182378 12.2395685,59.8182378 Z M10.5117937,61.5274801 C11.2619075,61.1776962 11.657328,60.438075 11.3949901,59.8754896 C11.1326522,59.3129043 10.3118981,59.1403946 9.56178427,59.4901784 C8.81167047,59.8399622 8.41624998,60.5795834 8.67858784,61.1421688 C8.9409257,61.7047542 9.76167985,61.8772639 10.5117937,61.5274801 Z M22.6438362,50.0214022 C23.9978608,51.2400246 23.4679748,53.0059596 23.4679748,53.0059596 C23.4054752,53.5439821 22.8689298,53.9932081 22.3114595,53.9932081 L22.7505424,53.9932081 C22.189605,53.9932081 21.8554233,53.5630901 21.9963828,53.0325126 C21.9963828,53.0325126 22.4632994,52.0975734 21.7411531,51.2400246 C21.0190068,50.3824757 19.9802379,50.5942003 19.9802379,50.5942003 C19.4339236,50.5827251 18.9833096,50.1565445 18.9833096,49.5994655 L18.9833096,50.3366546 C18.9833096,49.7757161 19.4251258,49.278702 19.9701336,49.2179221 C19.9701336,49.2179221 21.2898117,48.8027799 22.6438362,50.0214022 Z M25.1713493,47.5841577 C27.6537279,49.931134 26.8981841,53.4468725 26.8981841,53.4468725 C26.8379687,54.2806121 26.0771564,54.9410251 25.2458731,54.9410251 L26.2703128,54.9410251 C25.4374776,54.9410251 24.8469045,54.2720382 24.9477646,53.446801 C24.9477646,53.446801 25.5324222,51.4656955 24.0429952,49.3279741 C22.5535681,47.1902527 19.7319475,47.5751034 19.7319475,47.5751034 C18.9122521,47.5561925 18.234005,46.9137761 18.234005,46.0868185 L18.234005,47.0787902 C18.234005,46.2594762 18.9046169,45.5868028 19.7318586,45.5934046 C19.7318586,45.5934046 22.6889708,45.2371812 25.1713493,47.5841577 Z" id="sina-weibo-L"></path>
                    </g>
                </g>
            </g>
        </g>
    </g>
</svg>